<?xml version="1.0" encoding="utf-8"?>
<!-- Generator: Adobe Illustrator 16.0.0, SVG Export Plug-In . SVG Version: 6.00 Build 0)  -->
<!DOCTYPE svg PUBLIC "-//W3C//DTD SVG 1.1//EN" "http://www.w3.org/Graphics/SVG/1.1/DTD/svg11.dtd">
<svg version="1.1" id="Layer_1" xmlns="http://www.w3.org/2000/svg" xmlns:xlink="http://www.w3.org/1999/xlink" x="0px" y="0px"
	 width="2012.334px" height="502.372px" viewBox="0 0 2012.334 502.372" enable-background="new 0 0 2012.334 502.372"
	 xml:space="preserve">
<linearGradient id="SVGID_1_" gradientUnits="userSpaceOnUse" x1="360.1895" y1="98.6001" x2="360.1895" y2="414.7931">
	<stop  offset="0" style="stop-color:#FF2C47"/>
	<stop  offset="1" style="stop-color:#DA1362"/>
</linearGradient>
<path fill="url(#SVGID_1_)" d="M251.186,0c-11.257,0-22.316,0.82-33.178,2.262v45.212c0,3.897,1.646,7.611,4.53,10.231
	c2.884,2.621,6.744,3.915,10.622,3.54c5.932-0.575,11.942-0.877,18.025-0.877c105.219,0,190.817,85.599,190.817,190.817
	c0,105.217-85.598,190.817-190.817,190.817c-18.64,0-33.178,13.377-33.178,30.245c0,17.226,13.303,30.123,33.178,30.123
	c62.876,0,120.379-23.268,164.484-61.586c53.053-46.084,86.702-113.967,86.702-189.6C502.372,112.685,389.686,0,251.186,0z"/>
<linearGradient id="SVGID_2_" gradientUnits="userSpaceOnUse" x1="189.1914" y1="98.6001" x2="189.1914" y2="414.7934">
	<stop  offset="0" style="stop-color:#FF2C47"/>
	<stop  offset="1" style="stop-color:#DA1362"/>
</linearGradient>
<path fill="url(#SVGID_2_)" d="M378.382,251.186c0-15.415-2.762-30.208-7.807-43.898c-17.923-48.565-64.668-83.298-119.389-83.298
	c-1.745,0-3.46,0.066-5.195,0.132c-13.134,0.613-28.407,3.526-43.229,9.466c-0.726,0.301-1.443,0.593-2.168,0.896
	c-0.377,0.17-0.773,0.311-1.15,0.481V67.553V5.383c-17.859,3.757-35.005,9.427-51.247,16.769c-5.558,2.512-9.131,8.053-9.131,14.152
	v60.608v128.732v112.489c0,16.733-14.237,21.712-18.592,22.845c-1.717,0.433-4.733,1.019-8.467,0.906l0.02-0.124
	c-8.137-0.265-19.667-3.866-28.455-19.451c-14.793-27.086-23.203-58.134-23.203-91.123c0-50.478,19.723-96.416,51.839-130.578
	c6.071-6.458,9.454-14.988,9.454-23.851V36.043C48.81,80.074,0,160.034,0,251.186c0,31.971,6.157,62.481,17.131,90.613h-0.178
	c0.009,0.048,0.019,0.085,0.038,0.133c0.253,0.586,0.547,1.093,0.82,1.64c0.18,0.453,0.406,0.896,0.585,1.348
	c-0.481-0.923-0.971-1.847-1.414-2.876c3.865,9.979,8.344,19.726,13.464,29.135c0.018,0.038,0.046,0.057,0.065,0.094
	c0.019,0.037,0.028,0.076,0.057,0.115c17.819,32.139,49.263,50.92,82.535,50.92c7.457,0,14.99-0.942,22.485-2.885
	c28.823-7.448,50.479-27.89,59.389-54.109c17.178,8.458,36.308,13.067,56.211,13.067
	C321.313,378.38,378.382,321.322,378.382,251.186z M199.52,275.502c-0.01-0.36-0.075-0.717-0.075-1.084v-46.463
	c0-16.358,9.645-31.217,24.598-37.863c8.4-3.725,17.612-5.723,27.143-5.723c2.141,0,4.263,0.122,6.355,0.321
	c33.866,3.205,60.473,31.792,60.473,66.497c0,36.847-29.982,66.818-66.828,66.818c-9.54,0-18.743-1.999-27.143-5.732
	C209.419,305.775,199.944,291.425,199.52,275.502z"/>
<g>
	<path fill="#442E3C" d="M803.226,202.544c-5.616-15.16-13.196-27.582-22.73-37.285c-9.543-9.704-20.436-16.915-32.707-21.645
		c-12.271-4.729-24.902-7.099-37.889-7.099c-6.571,0-12.819,0.558-18.756,1.681c-5.928,1.124-11.469,2.644-16.594,4.568
		c-5.135,1.927-9.864,4.096-14.187,6.494c-4.333,2.407-8.344,4.899-12.026,7.467h-0.481c0.151-3.21,0.273-7.741,0.359-13.593
		c0.076-5.853,0.123-12.224,0.123-19.124v-16.264V27.077c-17.896,3.765-35.025,9.558-51.187,17.118
		c-3.549,1.66-5.817,5.228-5.817,9.146v267.411c0,8.25,0,27.904,0,48.084c0,3.596,2.917,6.515,6.513,6.515h34.208
		c3.049,0,5.692-2.116,6.352-5.098l4.39-19.682h0.962c2.086,2.737,4.937,5.862,8.543,9.383c3.604,3.531,8.061,6.899,13.346,10.102
		c5.296,3.208,11.459,5.899,18.52,8.061c7.062,2.17,14.99,3.246,23.816,3.246c12.497,0,24.929-2.521,37.275-7.579
		c12.347-5.05,23.457-12.78,33.312-23.212c9.864-10.42,17.84-23.729,23.938-39.92c6.089-16.196,9.138-34.793,9.138-55.804
		C811.646,235.128,808.833,217.685,803.226,202.544z M749.11,289.604c-2.407,9.541-5.975,17.764-10.704,24.654
		c-4.729,6.9-10.582,12.234-17.557,15.989c-6.976,3.776-15.112,5.664-24.411,5.664c-5.456,0-10.591-0.764-15.396-2.294
		c-4.813-1.52-9.259-3.445-13.347-5.767c-4.096-2.321-7.778-4.891-11.062-7.701c-3.295-2.804-6.051-5.485-8.297-8.055V200.496
		c7.051-5.616,14.905-10.1,23.571-13.469c8.655-3.37,17.15-5.06,25.495-5.06c6.088,0,12.214,0.963,18.397,2.889
		c6.164,1.925,12.11,5.664,17.793,11.186c5.691,5.541,10.307,13.555,13.837,24.05c3.521,10.507,5.286,23.061,5.286,37.644
		C752.716,269.452,751.518,280.071,749.11,289.604z"/>
	<path fill="#442E3C" d="M939.85,381.372c-23.409,0-42.808-3.975-58.203-11.913c-15.395-7.929-27.025-18.634-34.878-32.103
		c-4.172-7.221-7.259-15.159-9.26-23.816c-2.01-8.655-3.011-18.282-3.011-28.864V148.798c0-3.598,2.917-6.514,6.514-6.514h43.976
		c3.597,0,6.514,2.917,6.514,6.514v129.864c0,7.854,0.566,14.64,1.689,20.323c1.114,5.701,2.804,10.629,5.05,14.79
		c3.842,7.061,9.298,12.318,16.349,15.765c7.06,3.446,15.48,5.163,25.26,5.163c10.26,0,19.039-1.924,26.345-5.768
		c7.287-3.85,12.78-9.703,16.472-17.566c3.68-7.523,5.531-18.029,5.531-31.499V148.798c0-3.598,2.917-6.514,6.514-6.514h43.976
		c3.598,0,6.514,2.917,6.514,6.514v135.877c0,18.927-3.295,34.878-9.854,47.867c-3.699,7.381-8.467,14.064-14.318,20.085
		c-5.854,6.014-12.744,11.14-20.683,15.388c-7.938,4.257-16.924,7.541-26.939,9.864C963.382,380.2,952.196,381.372,939.85,381.372z"
		/>
	<path fill="#442E3C" d="M1128.155,174.755h0.962c3.37-4.814,7.608-9.533,12.744-14.187c5.134-4.654,10.986-8.741,17.557-12.271
		c6.579-3.521,13.828-6.372,21.767-8.533c7.947-2.17,16.396-3.257,25.372-3.257c8.497,0,16.728,0.962,24.655,2.889
		c7.939,1.925,15.197,4.936,21.766,9.023c6.57,4.087,12.396,9.382,17.436,15.877c5.06,6.484,9.023,14.233,11.912,23.211
		c1.594,4.965,2.68,10.382,3.247,16.225c0.557,5.862,0.841,12.631,0.841,20.333v144.768c0,3.598-2.916,6.514-6.514,6.514h-43.976
		c-3.598,0-6.514-2.916-6.514-6.514V232.966c0-6.258-0.236-11.629-0.72-16.122c-0.48-4.483-1.368-8.41-2.65-11.789
		c-2.879-7.362-7.25-12.658-13.103-15.867c-5.862-3.2-12.951-4.814-21.293-4.814c-11.063,0-21.683,2.615-31.869,7.816
		c-10.184,5.219-19.198,12.789-27.051,22.729v153.915c0,3.598-2.916,6.514-6.514,6.514h-43.977c-3.598,0-6.514-2.916-6.514-6.514
		V148.798c0-3.598,2.916-6.514,6.514-6.514h35.088c3.192,0,5.915,2.314,6.429,5.465L1128.155,174.755z"/>
	<path fill="#442E3C" d="M1440.631,331.22c-1.549-1.237-3.568-1.709-5.494-1.274c-3.379,0.744-6.874,1.416-10.466,1.992
		c-6.506,1.047-13.038,1.566-19.607,1.566c-14.271,0-23.814-3.69-28.629-11.062c-2.729-4.344-4.089-10.988-4.089-19.966V189.188
		h60.837c3.598,0,6.515-2.918,6.515-6.514v-33.877c0-3.596-2.917-6.513-6.515-6.513h-60.837l0.01-65.169
		c-17.895,3.765-35.023,9.558-51.187,17.118c-3.549,1.66-5.817,5.228-5.817,9.146v206.546c0,14.592,1.842,26.146,5.523,34.641
		c5.134,11.867,13.914,20.968,26.346,27.301c12.421,6.334,28.41,9.495,47.978,9.495c7.704,0,16-0.557,24.893-1.681
		c6.721-0.851,12.725-1.916,18.029-3.229c2.905-0.715,4.946-3.333,4.946-6.322v-33.821
		C1443.067,334.327,1442.169,332.458,1440.631,331.22z"/>
	<path fill="#442E3C" d="M1472.649,148.799c0-3.598,2.916-6.514,6.514-6.514h43.978c3.597,0,6.514,2.917,6.514,6.514v220.05
		c0,3.597-2.917,6.514-6.514,6.514h-43.978c-3.598,0-6.514-2.917-6.514-6.514V148.799z"/>
	<path fill="#442E3C" d="M1611.028,174.755h0.962c3.371-4.813,7.61-9.534,12.745-14.188c5.134-4.653,10.986-8.74,17.564-12.271
		c6.571-3.531,13.828-6.373,21.768-8.543c7.938-2.162,16.397-3.247,25.375-3.247c8.505,0,16.725,0.962,24.654,2.889
		c7.94,1.925,15.198,4.927,21.777,9.024c6.57,4.087,12.383,9.373,17.436,15.876c5.057,6.484,9.022,14.234,11.909,23.212
		c1.598,4.974,2.682,10.383,3.249,16.235c0.556,5.853,0.841,12.63,0.841,20.323v144.799c0,3.598-2.917,6.515-6.515,6.515h-43.986
		c-3.598,0-6.515-2.917-6.515-6.515V232.968c0-6.249-0.234-11.629-0.716-16.113c-0.481-4.493-1.369-8.42-2.644-11.79
		c-2.89-7.373-7.259-12.668-13.111-15.877c-5.861-3.2-12.952-4.814-21.295-4.814c-11.063,0-21.684,2.615-31.868,7.825
		c-10.185,5.211-19.209,12.791-27.061,22.73v153.937c0,3.598-2.917,6.515-6.515,6.515h-43.987c-3.598,0-6.515-2.917-6.515-6.515
		V148.798c0-3.598,2.917-6.515,6.515-6.515h35.098c3.193,0,5.916,2.314,6.43,5.466L1611.028,174.755z"/>
	<path fill="#442E3C" d="M1955.458,381.372c0-3.21,0.038-7.174,0.122-11.911c0.076-4.73,0.273-8.694,0.606-11.904h-0.484
		c-3.538,2.891-7.578,5.738-12.146,8.543c-4.569,2.803-9.583,5.372-15.039,7.692c-5.444,2.323-11.468,4.173-18.037,5.533
		c-6.568,1.358-13.311,2.047-20.199,2.047c-12.347,0-24.41-2.209-36.199-6.616c-11.791-4.409-22.249-11.385-31.387-20.919
		c-9.138-9.551-16.519-21.766-22.126-36.689c-5.615-14.915-8.419-32.857-8.419-53.869c0-21.002,2.842-39.409,8.533-55.201
		s13.271-28.988,22.729-39.569c9.456-10.582,20.321-18.548,32.594-23.929c12.271-5.371,24.891-8.061,37.879-8.061
		c14.272,0,26.939,3.011,38.003,9.024c11.063,6.012,20.114,13.667,27.184,22.965h0.955l1.863-20.294
		c0.308-3.353,3.119-5.918,6.486-5.918h37.571c3.598,0,6.514,2.917,6.514,6.514v230.873c0,13.63-1.124,25.336-3.37,35.114
		c-2.246,9.779-5.521,18.444-9.854,25.985c-5.136,8.808-11.667,16.509-19.604,23.088c-7.939,6.57-17.001,12.027-27.187,16.351
		c-10.185,4.331-21.359,7.578-33.546,9.74s-25.09,3.248-38.72,3.248c-7.703,0-15.245-0.284-22.607-0.841
		c-7.381-0.567-14.319-1.368-20.813-2.407c-6.494-1.038-12.423-2.245-17.793-3.606c-3.366-0.852-6.402-1.722-9.108-2.608
		c-2.677-0.878-4.483-3.374-4.483-6.191v-32.999c0-2.043,0.959-3.968,2.591-5.199c1.631-1.231,3.746-1.628,5.712-1.067
		c8.05,2.297,16.389,4.13,25.008,5.494c11.629,1.841,23.852,2.767,36.681,2.767c25.497,0,45.214-4.928,59.166-14.79
		c13.95-9.865,20.926-24.816,20.926-44.854V381.372z M1904.465,335.912c5.777,0,11.227-0.728,16.361-2.172
		c5.124-1.442,9.853-3.284,14.186-5.53c4.323-2.237,8.214-4.729,11.669-7.457c3.443-2.729,6.371-5.447,8.777-8.174V208.435
		c-6.101-7.22-13.63-13.234-22.606-18.039c-8.986-4.813-18.529-7.306-28.631-7.466c-3.519,0-7.246,0.443-11.186,1.33
		c-3.925,0.878-7.891,2.445-11.904,4.692c-4,2.247-7.814,5.248-11.419,9.014c-3.606,3.775-6.777,8.533-9.506,14.319
		c-2.718,5.769-4.927,12.668-6.606,20.681c-1.689,8.015-2.531,17.312-2.531,27.894c0,11.704,1.125,22.172,3.37,31.395
		c2.249,9.222,5.607,17.076,10.101,23.571c4.483,6.492,10.063,11.467,16.716,14.902
		C1887.911,334.185,1895.642,335.912,1904.465,335.912z"/>
</g>
</svg>
