<?xml version="1.0" encoding="utf-8"?>
<!-- Generator: Adobe Illustrator 16.0.0, SVG Export Plug-In . SVG Version: 6.00 Build 0)  -->
<!DOCTYPE svg PUBLIC "-//W3C//DTD SVG 1.1//EN" "http://www.w3.org/Graphics/SVG/1.1/DTD/svg11.dtd">
<svg version="1.1" id="Layer_1" xmlns="http://www.w3.org/2000/svg" xmlns:xlink="http://www.w3.org/1999/xlink" x="0px" y="0px"
	 width="2000px" height="2000px" viewBox="0 0 2000 2000" enable-background="new 0 0 2000 2000" xml:space="preserve">
<g>
	<linearGradient id="SVGID_1_" gradientUnits="userSpaceOnUse" x1="1433.5947" y1="393.0474" x2="1433.5947" y2="1650.7925">
		<stop  offset="0" style="stop-color:#FF2C47"/>
		<stop  offset="1" style="stop-color:#DA1362"/>
	</linearGradient>
	<path fill="url(#SVGID_1_)" d="M1000,0.838c-44.777,0-88.768,3.264-131.973,8.999v179.846c0,15.5,6.55,30.273,18.021,40.698
		c11.471,10.425,26.825,15.573,42.253,14.078c23.596-2.287,47.501-3.488,71.7-3.488c418.54,0,759.028,340.494,759.028,759.029
		c0,418.529-340.488,759.029-759.028,759.029c-74.145,0-131.973,53.209-131.973,120.307c0,68.521,52.915,119.826,131.973,119.826
		c250.106,0,478.84-92.553,654.28-244.977c211.033-183.313,344.883-453.334,344.883-754.185
		C1999.162,449.074,1550.924,0.838,1000,0.838z"/>
	<linearGradient id="SVGID_2_" gradientUnits="userSpaceOnUse" x1="753.3979" y1="393.0469" x2="753.3979" y2="1650.7905">
		<stop  offset="0" style="stop-color:#FF2C47"/>
		<stop  offset="1" style="stop-color:#DA1362"/>
	</linearGradient>
	<path fill="url(#SVGID_2_)" d="M1505.959,1000c0-61.316-10.986-120.162-31.054-174.616
		c-71.291-193.183-257.234-331.342-474.903-331.342c-6.939,0-13.764,0.265-20.663,0.526
		c-52.243,2.439-112.997,14.028-171.952,37.653c-2.887,1.197-5.741,2.359-8.627,3.563c-1.5,0.676-3.075,1.238-4.574,1.914V269.548
		V22.252c-71.04,14.944-139.241,37.496-203.849,66.701c-22.107,9.993-36.323,32.032-36.323,56.293v241.086v512.068v447.455
		c0,66.563-56.633,86.365-73.956,90.871c-6.83,1.721-18.827,4.051-33.681,3.607l0.078-0.496
		c-32.367-1.053-78.233-15.379-113.186-77.373c-58.844-107.74-92.296-231.24-92.296-362.465
		c0-200.788,78.452-383.52,206.205-519.409c24.15-25.688,37.605-59.617,37.605-94.875V144.21
		C194.994,319.353,0.838,637.417,0.838,1000c0,127.172,24.491,248.538,68.144,360.438h-0.708c0.036,0.191,0.073,0.34,0.149,0.529
		c1.008,2.332,2.176,4.346,3.261,6.521c0.715,1.803,1.614,3.568,2.327,5.361c-1.915-3.67-3.861-7.346-5.625-11.439
		c15.375,39.691,33.19,78.463,53.557,115.891c0.071,0.154,0.182,0.225,0.26,0.373c0.074,0.148,0.113,0.305,0.226,0.457
		c70.879,127.842,195.955,202.549,328.304,202.549c29.663,0,59.628-3.748,89.442-11.473
		c114.65-29.629,200.796-110.939,236.235-215.238c68.331,33.646,144.425,51.98,223.593,51.98
		C1278.951,1505.949,1505.959,1278.984,1505.959,1000z M794.485,1096.725c-0.039-1.434-0.299-2.852-0.299-4.313V907.591
		c0-65.067,38.366-124.173,97.844-150.611c33.415-14.815,70.058-22.765,107.97-22.765c8.518,0,16.956,0.485,25.28,1.274
		c134.713,12.751,240.547,126.461,240.547,264.51c0,146.567-119.262,265.792-265.827,265.792c-37.949,0-74.555-7.955-107.97-22.805
		C833.861,1217.141,796.171,1160.063,794.485,1096.725z"/>
</g>
</svg>
